# xmcd
#
# Track frame offsets: 
#        150
#        48477
#        122960
#        185692
#        199352
#        265872
#
# Disc length: 4021 seconds
#
# Revision: 2
# Processed by: cddbd v1.5.2PL0 Copyright (c) Steve Scherf et al.
# Submitted via: ExactAudioCopy v0.99pb5
#
DISCID=5c0fb306
DTITLE=String Cheese Incident - OTR 04-28-2002 New Orleans, LA [CD2
DTITLE=)
DYEAR=2002
DGENRE=Jam Band
TTITLE0=Windy Mountain»
TTITLE1=Rollover»
TTITLE2=Rivertrance
TTITLE3=Intro
TTITLE4=Black and White
TTITLE5=Search
EXTD=
EXTT0=
EXTT1=
EXTT2=
EXTT3=
EXTT4=
EXTT5=
PLAYORDER=
